<?xml version="1.0" encoding="UTF-8" standalone="no"?>
<!-- Created with Inkscape (http://www.inkscape.org/) -->

<svg
   xmlns:dc="http://purl.org/dc/elements/1.1/"
   xmlns:cc="http://creativecommons.org/ns#"
   xmlns:rdf="http://www.w3.org/1999/02/22-rdf-syntax-ns#"
   xmlns:svg="http://www.w3.org/2000/svg"
   xmlns="http://www.w3.org/2000/svg"
   xmlns:sodipodi="http://sodipodi.sourceforge.net/DTD/sodipodi-0.dtd"
   xmlns:inkscape="http://www.inkscape.org/namespaces/inkscape"
   width="745.09998"
   height="117.6"
   id="svg3513"
   version="1.1"
   inkscape:version="0.48.5 r10040"
   sodipodi:docname="New document 2">
  <defs
     id="defs3515" />
  <sodipodi:namedview
     id="base"
     pagecolor="#ffffff"
     bordercolor="#666666"
     borderopacity="1.0"
     inkscape:pageopacity="0.0"
     inkscape:pageshadow="2"
     inkscape:zoom="0.35"
     inkscape:cx="381.83571"
     inkscape:cy="207.37143"
     inkscape:document-units="px"
     inkscape:current-layer="layer1"
     showgrid="false"
     borderlayer="false"
     fit-margin-top="0"
     fit-margin-left="0"
     fit-margin-right="0"
     fit-margin-bottom="0"
     inkscape:window-width="1735"
     inkscape:window-height="1060"
     inkscape:window-x="183"
     inkscape:window-y="-3"
     inkscape:window-maximized="1" />
  <metadata
     id="metadata3518">
    <rdf:RDF>
      <cc:Work
         rdf:about="">
        <dc:format>image/svg+xml</dc:format>
        <dc:type
           rdf:resource="http://purl.org/dc/dcmitype/StillImage" />
        <dc:title></dc:title>
      </cc:Work>
    </rdf:RDF>
  </metadata>
  <g
     inkscape:label="Layer 1"
     inkscape:groupmode="layer"
     id="layer1"
     transform="translate(6.83571,-622.13361)">
    <g
       transform="translate(-151.23571,-247.56639)"
       id="XMLID_98_">
      <g
         id="XMLID_466_">
        <path
           style="fill:#2981c4"
           inkscape:connector-curvature="0"
           id="XMLID_470_"
           d="m 302,923.3 -36.2,-36.4 0,0 c -10.6,-10.6 -25.3,-17.2 -41.5,-17.2 0,0 0,0 0,0 v 14.7 c 1.9,0 3.8,0.1 5.8,0.4 21.4,2.9 38,21.4 38.3,43 0.4,24.6 -19.5,44.8 -44.1,44.8 -24.3,0 -44.1,-19.8 -44.1,-44.1 0,0 0,0 0,0 v -39 l -33.7,33.9 c -2.8,2.9 -2.8,7.5 0,10.3 l 36.2,36.4 0,-0.1 c 10.6,10.7 25.3,17.3 41.6,17.3 16.2,0 30.9,-6.6 41.5,-17.2 l 0,0 36.2,-36.4 c 2.8,-2.9 2.8,-7.5 0,-10.4 z" />
        <path
           style="fill:#2981c4"
           inkscape:connector-curvature="0"
           id="XMLID_467_"
           d="m 209.6,871.6 c -5.2,1.4 -10.1,3.4 -14.7,6 v 50.9 h 0 c 0,16.6 13.8,30 30.5,29.4 15.1,-0.6 27.6,-13.1 28.2,-28.2 0.7,-16.7 -12.8,-30.6 -29.4,-30.6 -5.4,0 -10.4,1.5 -14.7,4 v 0 l 0.1,-31.5 z m 0,56.9 0,0 c 0,-8.1 6.6,-14.7 14.7,-14.7 8.1,0 14.7,6.6 14.7,14.7 0,8.1 -6.6,14.7 -14.7,14.7 -8.1,0 -14.7,-6.6 -14.7,-14.7 l 0,0 z" />
      </g>
      <g
         id="g11">
        <path
           style="fill:#2981c4"
           inkscape:connector-curvature="0"
           d="m 335.6,973.6 v -0.3 c 0,-6.2 4.1,-10.3 9.3,-10.3 3.2,0 5.3,1.2 7,3.2 l -3.3,3.5 c -0.9,-1 -2,-1.9 -3.5,-1.9 -2.4,0 -4.1,2.1 -4.1,5.5 v 0.1 c 0,3.6 1.8,5.6 4.1,5.6 1.7,0 2.8,-0.9 3.7,-2 l 3.3,3.3 c -1.6,2 -3.9,3.4 -7.2,3.4 -5.3,0.1 -9.3,-3.8 -9.3,-10.1 z"
           id="path13" />
        <path
           style="fill:#2981c4"
           inkscape:connector-curvature="0"
           d="m 353.6,973.7 v -0.4 c 0,-6 3.9,-10.2 9.3,-10.2 5.4,0 9.3,4.2 9.3,10.2 v 0.4 c 0,6 -3.9,10.2 -9.3,10.2 -5.4,0 -9.3,-4.2 -9.3,-10.2 z m 13.4,-0.1 v -0.3 c 0,-3.5 -1.7,-5.6 -4.1,-5.6 -2.4,0 -4,2.1 -4,5.6 v 0.3 c 0,3.5 1.7,5.6 4.1,5.6 2.4,0 4,-2.1 4,-5.6 z"
           id="path15" />
        <path
           style="fill:#2981c4"
           inkscape:connector-curvature="0"
           d="m 375.5,963.4 h 4.9 l 6.7,10.1 v -10.1 h 5.1 v 20.1 h -4.6 l -7,-10.5 v 10.5 h -5.1 v -20.1 z"
           id="path17" />
        <path
           style="fill:#2981c4"
           inkscape:connector-curvature="0"
           d="m 400,968 h -5 v -4.7 h 15.1 v 4.7 h -5 v 15.5 H 400 V 968 z"
           id="path19" />
        <path
           style="fill:#2981c4"
           inkscape:connector-curvature="0"
           d="M 413.1,963.4 H 427 v 4.5 h -8.7 v 3.3 h 7.9 v 4.3 h -7.9 v 3.4 h 8.8 v 4.5 h -14 v -20 z"
           id="path21" />
        <path
           style="fill:#2981c4"
           inkscape:connector-curvature="0"
           d="m 446.6,963.4 -5.6,9.8 5.9,10.3 H 441 l -3.1,-6.2 -3.1,6.2 h -5.7 l 5.8,-10.2 -5.6,-9.9 h 5.8 l 2.8,5.8 2.9,-5.8 h 5.8 z"
           id="path23" />
        <path
           style="fill:#2981c4"
           inkscape:connector-curvature="0"
           d="m 453.3,968 h -5 v -4.7 h 15.1 v 4.7 h -5 v 15.5 h -5.2 V 968 z"
           id="path25" />
        <path
           style="fill:#2981c4"
           inkscape:connector-curvature="0"
           d="m 466.2,975.5 v -12.2 h 5.2 v 12.2 c 0,2.4 1.2,3.6 3,3.6 1.8,0 3,-1.1 3,-3.5 v -12.3 h 5.2 v 12.1 c 0,5.8 -3.3,8.4 -8.2,8.4 -5,0 -8.2,-2.5 -8.2,-8.3 z"
           id="path27" />
        <path
           style="fill:#2981c4"
           inkscape:connector-curvature="0"
           d="m 491.3,963.3 h 5.2 l 7.1,20.2 h -5.4 l -1.2,-3.6 h -6.3 l -1.1,3.6 h -5.3 l 7,-20.2 z m 4.4,12.4 -1.9,-5.9 -1.9,5.9 h 3.8 z"
           id="path29" />
        <path
           style="fill:#2981c4"
           inkscape:connector-curvature="0"
           d="m 506.1,963.4 h 5.2 v 15.5 h 7.9 v 4.7 h -13.1 v -20.2 z"
           id="path31" />
        <path
           style="fill:#2981c4"
           inkscape:connector-curvature="0"
           d="m 528.3,980.8 2.8,-3.8 c 1.6,1.4 3.5,2.3 5.5,2.3 1.4,0 2.1,-0.6 2.1,-1.5 v 0 c 0,-0.8 -0.6,-1.3 -3,-2.1 -3.8,-1.3 -6.5,-2.7 -6.5,-6.3 v -0.1 c 0,-3.6 2.8,-6.2 7.2,-6.2 2.7,0 5.1,0.7 7.2,2.4 l -2.6,3.9 c -1.4,-1.1 -3,-1.8 -4.7,-1.8 -1.2,0 -1.8,0.6 -1.8,1.3 v 0 c 0,0.9 0.6,1.4 3.2,2.3 3.8,1.2 6.2,2.8 6.2,6.2 v 0.1 c 0,3.9 -3,6.3 -7.3,6.3 -3.1,0 -6,-0.9 -8.3,-3 z"
           id="path33" />
        <path
           style="fill:#2981c4"
           inkscape:connector-curvature="0"
           d="m 546.8,963.4 h 13.8 v 4.5 H 552 v 3.3 h 7.9 v 4.3 H 552 v 3.4 h 8.8 v 4.5 h -14 v -20 z"
           id="path35" />
        <path
           style="fill:#2981c4"
           inkscape:connector-curvature="0"
           d="m 563.3,973.6 v -0.3 c 0,-6.2 4.1,-10.3 9.3,-10.3 3.2,0 5.3,1.2 7,3.2 l -3.3,3.5 c -0.9,-1 -2,-1.9 -3.5,-1.9 -2.4,0 -4.1,2.1 -4.1,5.5 v 0.1 c 0,3.6 1.8,5.6 4.1,5.6 1.7,0 2.8,-0.9 3.7,-2 l 3.3,3.3 c -1.6,2 -3.9,3.4 -7.2,3.4 -5.3,0.1 -9.3,-3.8 -9.3,-10.1 z"
           id="path37" />
        <path
           style="fill:#2981c4"
           inkscape:connector-curvature="0"
           d="m 582.3,975.5 v -12.2 h 5.2 v 12.2 c 0,2.4 1.2,3.6 3,3.6 1.8,0 3,-1.1 3,-3.5 v -12.3 h 5.2 v 12.1 c 0,5.8 -3.3,8.4 -8.2,8.4 -5,0 -8.2,-2.5 -8.2,-8.3 z"
           id="path39" />
        <path
           style="fill:#2981c4"
           inkscape:connector-curvature="0"
           d="m 602.3,963.4 h 7.9 c 2.7,0 4.7,0.7 6,2 1.1,1.1 1.8,2.7 1.8,4.7 v 0.1 c 0,3 -1.5,4.9 -3.6,5.9 l 4.1,7.3 h -5.8 l -3.4,-6.2 h -1.8 v 6.2 h -5.1 v -20 z m 7.7,9.8 c 1.8,0 2.8,-1 2.8,-2.6 v -0.1 c 0,-1.7 -1.1,-2.6 -2.8,-2.6 h -2.5 v 5.3 h 2.5 z"
           id="path41" />
        <path
           style="fill:#2981c4"
           inkscape:connector-curvature="0"
           d="m 621.2,963.4 h 5.2 v 20.1 h -5.2 v -20.1 z"
           id="path43" />
        <path
           style="fill:#2981c4"
           inkscape:connector-curvature="0"
           d="m 634.4,968 h -5 v -4.7 h 15.1 v 4.7 h -5 v 15.5 h -5.2 V 968 z"
           id="path45" />
        <path
           style="fill:#2981c4"
           inkscape:connector-curvature="0"
           d="m 652.3,976 -6.5,-12.6 h 5.7 l 3.4,7.3 3.4,-7.3 h 5.6 l -6.5,12.5 v 7.6 h -5.2 V 976 z"
           id="path47" />
        <path
           style="fill:#2981c4"
           inkscape:connector-curvature="0"
           d="m 674.1,963.4 h 5.2 v 20.1 h -5.2 v -20.1 z"
           id="path49" />
        <path
           style="fill:#2981c4"
           inkscape:connector-curvature="0"
           d="m 683.2,963.4 h 4.9 l 6.7,10.1 v -10.1 h 5.1 v 20.1 h -4.6 l -7,-10.5 v 10.5 h -5.1 v -20.1 z"
           id="path51" />
        <path
           style="fill:#2981c4"
           inkscape:connector-curvature="0"
           d="m 707.7,968 h -5 v -4.7 h 15.1 v 4.7 h -5 v 15.5 h -5.2 V 968 z"
           id="path53" />
        <path
           style="fill:#2981c4"
           inkscape:connector-curvature="0"
           d="m 720.8,963.4 h 13.8 v 4.5 h -8.7 v 3.3 h 7.9 v 4.3 h -7.9 v 3.4 h 8.8 v 4.5 h -14 v -20 z"
           id="path55" />
        <path
           style="fill:#2981c4"
           inkscape:connector-curvature="0"
           d="m 738,963.4 h 5.2 v 15.5 h 7.9 v 4.7 H 738 v -20.2 z"
           id="path57" />
        <path
           style="fill:#2981c4"
           inkscape:connector-curvature="0"
           d="m 754,963.4 h 5.2 v 15.5 h 7.9 v 4.7 H 754 v -20.2 z"
           id="path59" />
        <path
           style="fill:#2981c4"
           inkscape:connector-curvature="0"
           d="m 770,963.4 h 5.2 v 20.1 H 770 v -20.1 z"
           id="path61" />
        <path
           style="fill:#2981c4"
           inkscape:connector-curvature="0"
           d="m 778.6,973.7 v -0.4 c 0,-6 4.1,-10.2 9.7,-10.2 2.9,0 5,0.9 6.9,2.4 l -2.9,3.9 c -1.1,-0.9 -2.2,-1.7 -3.9,-1.7 -2.6,0 -4.5,2.2 -4.5,5.6 v 0.3 c 0,3.7 2,5.7 4.6,5.7 1,0 1.8,-0.2 2.3,-0.6 v -3 h -3.2 v -4 h 8 v 9.6 c -1.9,1.4 -4.3,2.5 -7.4,2.5 -5.4,0 -9.6,-3.8 -9.6,-10.1 z"
           id="path63" />
        <path
           style="fill:#2981c4"
           inkscape:connector-curvature="0"
           d="M 799.1,963.4 H 813 v 4.5 h -8.7 v 3.3 h 7.9 v 4.3 h -7.9 v 3.4 h 8.8 v 4.5 h -14 v -20 z"
           id="path65" />
        <path
           style="fill:#2981c4"
           inkscape:connector-curvature="0"
           d="m 816.3,963.4 h 4.9 l 6.7,10.1 v -10.1 h 5.1 v 20.1 h -4.6 l -7,-10.5 v 10.5 h -5.1 v -20.1 z"
           id="path67" />
        <path
           style="fill:#2981c4"
           inkscape:connector-curvature="0"
           d="m 836.2,973.6 v -0.3 c 0,-6.2 4.1,-10.3 9.3,-10.3 3.2,0 5.3,1.2 7,3.2 l -3.3,3.5 c -0.9,-1 -2,-1.9 -3.5,-1.9 -2.4,0 -4.1,2.1 -4.1,5.5 v 0.1 c 0,3.6 1.8,5.6 4.1,5.6 1.7,0 2.8,-0.9 3.7,-2 l 3.3,3.3 c -1.6,2 -3.9,3.4 -7.2,3.4 -5.3,0.1 -9.3,-3.8 -9.3,-10.1 z"
           id="path69" />
        <path
           style="fill:#2981c4"
           inkscape:connector-curvature="0"
           d="m 855.4,963.4 h 13.8 v 4.5 h -8.7 v 3.3 h 7.9 v 4.3 h -7.9 v 3.4 h 8.8 v 4.5 h -14 v -20 z"
           id="path71" />
      </g>
      <g
         id="g73">
        <path
           style="fill:#414042"
           inkscape:connector-curvature="0"
           d="m 335.9,873.6 h 34.6 c 8.5,0 14.5,2.1 18.4,6 2.7,2.8 4.3,6.4 4.3,11 v 0.2 c 0,7.8 -4.4,12.4 -10.4,15 8.2,2.7 13.4,7.3 13.4,16.5 v 0.2 c 0,11.6 -9.5,18.6 -25.6,18.6 h -34.8 v -67.5 z m 39,20.8 c 0,-3.8 -3,-5.8 -8.5,-5.8 h -12.3 v 11.9 h 11.8 c 5.7,0 9,-1.9 9,-5.9 v -0.2 z m -6.5,19.2 H 354.1 V 926 h 14.5 c 5.8,0 9,-2.2 9,-6.2 v -0.2 c 0,-3.6 -2.9,-6 -9.2,-6 z"
           id="path75" />
        <path
           style="fill:#414042"
           inkscape:connector-curvature="0"
           d="m 447.5,873.1 h 18 l 28.7,68 h -20.1 l -4.8,-12.2 h -26.1 l -4.8,12.2 h -19.6 l 28.7,-68 z m 16.4,41.3 -7.5,-19.1 -7.6,19.1 h 15.1 z"
           id="path77" />
        <path
           style="fill:#414042"
           inkscape:connector-curvature="0"
           d="m 520.2,873.6 h 18.7 v 51.1 h 32.7 v 16.4 h -51.4 v -67.5 z"
           id="path79" />
        <path
           style="fill:#414042"
           inkscape:connector-curvature="0"
           d="m 622.3,873.1 h 18 l 28.7,68 h -20.1 l -4.8,-12.2 H 618 l -4.8,12.2 h -19.6 l 28.7,-68 z m 16.4,41.3 -7.5,-19.1 -7.6,19.1 h 15.1 z"
           id="path81" />
        <path
           style="fill:#414042"
           inkscape:connector-curvature="0"
           d="m 695,873.6 h 34.6 c 8.5,0 14.5,2.1 18.4,6 2.7,2.8 4.3,6.4 4.3,11 v 0.2 c 0,7.8 -4.4,12.4 -10.4,15 8.2,2.7 13.4,7.3 13.4,16.5 v 0.2 c 0,11.6 -9.5,18.6 -25.6,18.6 H 695 v -67.5 z m 39,20.8 c 0,-3.8 -3,-5.8 -8.5,-5.8 h -12.3 v 11.9 H 725 c 5.7,0 9,-1.9 9,-5.9 v -0.2 z m -6.5,19.2 H 713.2 V 926 h 14.5 c 5.8,0 9,-2.2 9,-6.2 v -0.2 c 0,-3.6 -2.9,-6 -9.2,-6 z"
           id="path83" />
        <path
           style="fill:#414042"
           inkscape:connector-curvature="0"
           d="m 783.7,873.6 h 18.7 v 67.5 h -18.7 v -67.5 z"
           id="path85" />
        <path
           style="fill:#414042"
           inkscape:connector-curvature="0"
           d="m 850.6,890 h -20.2 v -16.4 h 59.1 V 890 h -20.3 v 51.1 H 850.5 V 890 z"
           id="path87" />
      </g>
    </g>
  </g>
</svg>
