<?xml version="1.0" encoding="utf-8"?>
<!-- Generator: Adobe Illustrator 18.0.0, SVG Export Plug-In . SVG Version: 6.00 Build 0)  -->
<!DOCTYPE svg PUBLIC "-//W3C//DTD SVG 1.1//EN" "http://www.w3.org/Graphics/SVG/1.1/DTD/svg11.dtd">
<svg version="1.1" id="Ebene_1" xmlns="http://www.w3.org/2000/svg" xmlns:xlink="http://www.w3.org/1999/xlink" x="0px" y="0px" width="347px" height="104px"
	 viewBox="0 0 347 104" enable-background="new 0 0 347 104" xml:space="preserve">
<g>
	<path id="bright__x28_websafe_x29__3_" fill="#6699CC" d="M11,53C11,27.9,31.3,7.5,56.5,7.5S102,27.9,102,53S81.6,98.5,56.5,98.5
		C31.3,98.5,11,78.1,11,53L11,53z"/>
	
		<radialGradient id="Highlited_bright__x28_websafe_x29__1_" cx="189.2304" cy="-1188.2266" r="184.3436" fx="189.9074" fy="-1211.6737" gradientTransform="matrix(0.2873 0 0 0.2873 -16.6054 385.5014)" gradientUnits="userSpaceOnUse">
		<stop  offset="7.460000e-002" style="stop-color:#FFFFFF"/>
		<stop  offset="0.1902" style="stop-color:#E9F0F8"/>
		<stop  offset="0.5784" style="stop-color:#A3C1E0"/>
		<stop  offset="0.8584" style="stop-color:#77A4D2"/>
		<stop  offset="1" style="stop-color:#6699CC"/>
	</radialGradient>
	<path id="Highlited_bright__x28_websafe_x29__3_" fill="url(#Highlited_bright__x28_websafe_x29__1_)" d="M11,53
		C11,27.9,31.3,7.5,56.5,7.5S102,27.9,102,53S81.6,98.5,56.5,98.5C31.3,98.5,11,78.1,11,53L11,53z"/>
	<path id="rays_3_" fill="none" stroke="#DFE7F4" stroke-width="0.3785" stroke-miterlimit="10" d="M43,9.4v87 M53.1,7.6L37.7,94.5
		 M63.6,8L33,92.1 M74,11L28.8,89.1 M83.5,16.3L25.1,85.9 M91.5,23.9L21.7,82.5 M97.5,33.1L18.8,78.6 M100.9,43.5L16.2,74.4
		 M102,54.1L14,69.7 M100.4,64.5H12.4 M96.8,74L11.3,59 M91.3,82.2L11,52.9 M84.8,88.6L11.3,46.3 M77.4,93.4L13,39.4 M69.8,96.6
		L16,32.2 M62.3,98.1l-42-72.8 M55.4,98.5L26.3,18.8 M48.9,97.9L34,13.4 M38.4,11.2l7.6,86.1 M48,8.3l-7.7,87.3 M58.4,7.5L35.3,93.4
		 M68.9,9.2L30.8,90.7 M78.9,13.4L26.8,87.6 M87.7,19.9L23.4,84.3 M94.8,28.4L20.2,80.6 M99.5,38.3l-82,38.2 M101.8,48.9L15.1,72.1
		 M101.5,59.5l-88.3,7.7 M98.9,69.5l-87.2-7.7 M94.3,78.4L11,56.1 M88.1,85.7l-77-36 M81.1,91.2L12,42.9 M73.6,95.2L14.3,35.8
		 M66.1,97.5L17.9,28.8 M58.8,98.5L23.1,22 M52.1,98.3L29.9,15.9"/>
	<g id="the_diagramming_company">
		<path d="M109,83.4l-2.2,6.3c-0.1,0.5,0,0.6,0.2,0.6c0.4,0,1.9-1.2,2.7-2.2c0.2,0,0.4,0.1,0.3,0.4c-1.3,2-3.6,3.5-4.6,3.5
			c-0.3,0-0.6-0.4-0.6-0.6c0-0.3,0.1-0.6,0.3-1.4l2.3-6.6h-1.9c0-0.2,0-0.6,0.3-0.7l1.9-0.3L109,80c0.2-0.1,0.7-0.1,0.9,0.1
			l-0.7,2.3h2.6c0.2,0.2,0,0.7-0.3,0.9L109,83.4L109,83.4z"/>
		<path d="M118.4,74.6c-0.5,1.3-1.2,3.5-1.7,4.9l-2.5,7.2l0,0c1.7-2.4,2.9-3.3,3.8-4c0.9-0.6,1.6-0.9,2.3-0.9c1.1,0,1.4,0.8,1.4,1.6
			c0,1.7-1,4.1-1.9,5.6c-0.5,0.8-0.9,1.3-1.6,2c-0.8,0.8-1.4,0.9-1.8,0.9c-0.8,0-0.9-0.5-0.9-0.7c0-0.4,0.3-0.8,0.6-0.8
			c0.1,0,0.2,0,0.3,0.1c0.2,0.1,0.5,0.3,0.6,0.3c0.4,0,0.6-0.4,1-1.2c0.6-1.6,1.7-4.9,1.7-6.2c0-0.5-0.2-0.7-0.5-0.7
			s-0.8,0.3-1.3,0.6c-1,0.8-1.8,1.6-3,3.2c-1.1,1.4-2.3,3.8-2.9,5c-0.1,0.2-0.2,0.3-0.4,0.3c-0.3,0-0.9-0.1-0.7-0.6l4.6-13.5
			c0.5-1.6,0.6-1.9,0.3-2.2l-0.5-0.3c0-0.1,0-0.2,0.1-0.3c0.4-0.2,2-0.5,2.8-0.6L118.4,74.6z"/>
		<path d="M130.7,83.3c0,1.8-2.4,3-5.8,4c-0.2,0.4-0.3,1.2-0.3,2.1c0,0.8,0.5,1.4,1.2,1.4c0.9,0,1.5-0.5,2.5-1.4
			c0.2,0,0.4,0.2,0.3,0.4c-1.5,1.8-2.8,2.2-3.8,2.2c-1.4,0-1.9-1.3-1.9-2.5c0-1.5,1-4.4,3.6-6.4c1.2-1,2.2-1.2,2.9-1.2
			C130.2,81.9,130.7,82.7,130.7,83.3z M126.9,83.8c-0.9,1-1.5,2.1-1.8,2.8c1.6-0.5,2.3-0.9,3.2-1.8c0.7-0.7,0.9-1.4,0.9-1.6
			c0-0.2-0.1-0.6-0.6-0.6C128.4,82.6,127.8,82.8,126.9,83.8z"/>
		<path d="M147.1,77.7c0.5-1.3,0.6-1.8,0.2-2l-0.6-0.4c0-0.1,0-0.2,0.1-0.3c0.5-0.2,1.8-0.5,2.8-0.5l0.1,0.1
			c-0.4,1.3-0.8,2.3-1.5,4.2c-2.4,6.5-3.5,10.4-3.7,11.1c-0.1,0.3-0.1,0.6,0.1,0.6c0.4,0,1.9-1.2,2.6-2.2c0.2,0,0.3,0.1,0.4,0.3
			c-0.6,1.3-2.8,3.3-4.1,3.3c-0.5,0-0.8-0.4-0.8-0.8c0-0.3,0.1-0.7,0.3-1.4l0.8-2.4l-0.1,0c-1.7,2.2-3.5,4.5-5.8,4.5
			c-0.9,0-1.4-0.8-1.4-1.7c0-1.7,1.3-4.6,3.2-6.3c1.6-1.5,3.1-2.1,4.3-2.1c0.4,0,1,0.2,1.2,0.7L147.1,77.7z M142.3,83.6
			c-1,0.9-2.7,3.2-3.4,4.7c-0.7,1.5-0.7,2-0.7,2.3c0,0.3,0.2,0.5,0.5,0.5c0.4,0,1.6-0.4,3.2-2.1c1.9-1.9,2.6-3.4,2.9-4.6
			c0.3-1,0-1.7-0.6-1.7C143.6,82.6,142.9,83,142.3,83.6z"/>
		<path d="M151.7,83.9c0.1-0.3,0.1-0.5,0-0.5s-0.8,0.3-2,1.3c-0.2,0-0.4-0.2-0.3-0.4c1.3-1.5,3.2-2.4,4-2.4c0.2,0,0.3,0.1,0.4,0.2
			c0.1,0.1,0.1,0.4-0.1,1.1l-2.9,6.8c-0.1,0.2-0.1,0.5,0.1,0.5c0.4,0,1.7-0.8,2.5-1.8c0.2,0,0.4,0.2,0.4,0.4
			c-0.4,0.7-2.8,2.9-4.5,2.9c-0.1,0-0.3-0.1-0.4-0.2c-0.1-0.2-0.2-0.4-0.1-0.6L151.7,83.9z M154.5,77.8c0,0.7-0.5,1.5-1.2,1.5
			c-0.6,0-0.8-0.5-0.8-0.9c0-0.5,0.3-1.5,1.3-1.5C154.3,76.9,154.5,77.3,154.5,77.8z"/>
		<path d="M163.7,81.3c0.4-0.2,1,0,1.2,0.4c-0.4,0.9-2.4,6.2-3.2,8.4c-0.1,0.4,0,0.6,0.2,0.6c0.4,0,1.1-0.4,2.5-1.6
			c0.2,0,0.3,0.1,0.3,0.3c-1,1.3-2.7,2.7-4,2.7c-0.6,0-0.7-0.5-0.7-0.6c0-0.2,0-0.4,0.2-0.9l0.8-2.2l-0.1,0
			c-1.7,2.1-4.1,3.8-5.3,3.8c-0.7,0-1.1-0.7-1.1-1.3c0-0.6,0.5-2.5,2.1-4.7c1.2-1.6,2.2-2.5,3.2-3.1c0.9-0.5,1.5-0.7,2.2-0.7
			c0.3,0,0.4,0.1,0.6,0.1c0.1,0,0.4,0.3,0.5,0.5L163.7,81.3z M159.5,84.1c-1.5,1.4-3,4.5-3,6.2c0,0.3,0.1,0.5,0.4,0.5
			c0.2,0,1-0.3,2.3-1.6c1.8-1.7,2.8-3.8,3.2-5.2c-0.2-0.5-0.6-0.9-1.2-0.9C160.7,83.1,160.3,83.4,159.5,84.1z"/>
		<path d="M172.4,82.1c0.3,0.1,0.5,0.2,0.6,0.2c0.2,0,0.7,0,1.2-0.1c0.5-0.1,0.9-0.2,1.1-0.2c0.3,0,0.5,0.2,0.5,0.6
			c0,0.6-0.3,0.7-0.5,0.7c-0.2,0-0.6-0.1-0.8-0.1c-0.2-0.1-0.7-0.1-0.9-0.1c-0.1,0-0.2,0.1-0.2,0.1c0,0.2,0.2,0.6,0.2,0.9
			c0,1.9-1.4,3.8-3,4.8c-0.3,0.2-1.2,0.5-1.7,0.6c-0.3,0.1-0.5,0.5-0.5,0.8c0,0.3,0.2,0.7,0.8,1.1c0.6,0.4,1.5,0.9,2.3,1.4
			c1.4,0.8,1.8,1.6,1.8,2.3c0,1.3-1.9,2.9-5.9,2.9c-1.8,0-3.8-0.7-3.8-2.3c0-1.8,2.8-3,4.1-3.4c-0.6-0.4-0.8-0.8-0.8-1.1
			c0-0.4,0.7-1.4,1.1-1.8c-0.5-0.1-1.8-0.6-1.8-2.2c0-1.3,0.7-3,1.9-4c1.2-1,2.3-1.4,3.5-1.4C171.8,81.9,172.1,82,172.4,82.1z
			 M171.5,95.7c0-0.4-0.3-0.9-1-1.5c-1-0.7-1.8-1.2-2.2-1.2c-0.6-0.1-1.5,0.4-2.2,0.9c-0.6,0.5-0.9,1-0.9,1.6c0,1.1,1.6,1.8,3.2,1.8
			C169.4,97.3,171.5,96.8,171.5,95.7z M169.7,83.6c-0.9,1.1-2.2,3.2-2.2,4.4c0,0.5,0.3,0.8,0.7,0.8c0.3,0,0.9-0.1,1.6-0.9
			c1.3-1.6,2.2-3.7,2.2-4.5c0-0.5-0.4-0.8-0.7-0.8C170.9,82.6,170.5,82.7,169.7,83.6z"/>
		<path d="M179,84.2l-1,3h0.1c0.7-1.3,1.9-3.3,2.5-4.1c0.6-0.7,1.2-1.2,1.8-1.2c0.8,0,1,0.8,1,1.2c0,0.4-0.2,1.1-0.5,1.4
			c-0.3,0.4-0.7,0.4-0.8-0.1c-0.1-0.6-0.3-0.9-0.5-0.9c-0.2,0-0.5,0.2-0.8,0.7c-1.5,1.9-2.8,4.8-4.1,7.6c-0.1,0.2-0.2,0.3-0.4,0.3
			c-0.3,0-1-0.1-0.8-0.6c0.3-1,1.8-5.2,2.5-7.6c0.1-0.3,0-0.5-0.2-0.5c-0.6,0-1.3,0.7-1.7,1.2c-0.2,0-0.4-0.1-0.4-0.4
			c0.8-1.3,1.7-2.3,2.8-2.3C179.6,81.9,179.2,83.5,179,84.2z"/>
		<path d="M191,81.3c0.4-0.2,1,0,1.2,0.4c-0.4,0.9-2.4,6.2-3.2,8.4c-0.1,0.4,0,0.6,0.2,0.6c0.4,0,1.1-0.4,2.5-1.6
			c0.2,0,0.3,0.1,0.3,0.3c-1,1.3-2.7,2.7-4,2.7c-0.6,0-0.7-0.5-0.7-0.6c0-0.2,0-0.4,0.2-0.9l0.8-2.2l-0.1,0
			c-1.7,2.1-4.1,3.8-5.3,3.8c-0.7,0-1.1-0.7-1.1-1.3c0-0.6,0.5-2.5,2.1-4.7c1.2-1.6,2.2-2.5,3.2-3.1c0.9-0.5,1.5-0.7,2.2-0.7
			c0.3,0,0.4,0.1,0.6,0.1c0.1,0,0.4,0.3,0.5,0.5L191,81.3z M186.8,84.1c-1.5,1.4-3,4.5-3,6.2c0,0.3,0.1,0.5,0.4,0.5
			c0.2,0,1-0.3,2.3-1.6c1.8-1.7,2.8-3.8,3.2-5.2c-0.2-0.5-0.6-0.9-1.2-0.9C188,83.1,187.6,83.4,186.8,84.1z"/>
		<path d="M202.8,85l-0.9,2.2l0.1,0c2.3-3.7,4.1-5.4,5.7-5.4c0.9,0,1.3,0.5,1.3,1.3c0,0.4-0.2,1.1-0.4,1.7c-0.4,1.2-2.2,5.1-2.2,5.3
			c-0.1,0.2-0.1,0.5,0,0.5c0.4,0,1.6-0.8,2.3-1.6c0.3,0,0.4,0.1,0.4,0.3c-0.9,1.5-2.8,2.7-4.1,2.7c-0.2,0-0.6-0.3-0.6-0.6
			c0-0.2,0.1-0.4,0.6-1.6c0.5-1.2,1.5-3.5,1.9-4.7c0.2-0.4,0.5-1.3,0.5-1.8c0-0.3,0-0.6-0.4-0.6c-0.7,0-1.8,1.2-3.1,2.9
			c-1.2,1.5-2.3,3.4-3.8,6.1c-0.1,0.2-0.2,0.3-0.4,0.3c-0.3,0-0.9-0.1-0.7-0.6l2.4-6.3c0.1-0.3,1.1-2.3,0.2-2.3
			c-0.7,0-2,1.2-3.3,2.9c-1.2,1.6-2.2,3.4-3.6,6.1c-0.1,0.2-0.2,0.3-0.4,0.3c-0.3,0-0.9-0.1-0.7-0.6c0.1-0.2,2.6-7.2,2.7-7.6
			c0.1-0.4,0.1-0.7-0.2-0.7c-0.8,0-1.6,0.7-2.1,1.3c-0.2,0-0.4-0.2-0.3-0.4c0.6-1.2,1.9-2.2,3.7-2.2c0.6,0,0.8,0.4,0.6,1l-1.7,4.3
			l0.1,0c1.7-2.8,4-5.4,5.8-5.4C203.8,81.9,203.3,83.8,202.8,85z"/>
		<path d="M220.3,85l-0.9,2.2l0.1,0c2.3-3.7,4.1-5.4,5.7-5.4c0.9,0,1.3,0.5,1.3,1.3c0,0.4-0.2,1.1-0.4,1.7c-0.4,1.2-2.2,5.1-2.2,5.3
			c-0.1,0.2-0.1,0.5,0,0.5c0.4,0,1.6-0.8,2.3-1.6c0.3,0,0.4,0.1,0.4,0.3c-0.9,1.5-2.8,2.7-4.1,2.7c-0.2,0-0.6-0.3-0.6-0.6
			c0-0.2,0.1-0.4,0.6-1.6c0.5-1.2,1.5-3.5,1.9-4.7c0.2-0.4,0.5-1.3,0.5-1.8c0-0.3,0-0.6-0.4-0.6c-0.7,0-1.8,1.2-3.1,2.9
			c-1.2,1.5-2.3,3.4-3.8,6.1c-0.1,0.2-0.2,0.3-0.4,0.3c-0.3,0-0.9-0.1-0.7-0.6l2.4-6.3c0.1-0.3,1.1-2.3,0.2-2.3
			c-0.7,0-2,1.2-3.3,2.9c-1.2,1.6-2.2,3.4-3.6,6.1c-0.1,0.2-0.2,0.3-0.4,0.3c-0.3,0-0.9-0.1-0.7-0.6c0.1-0.2,2.6-7.2,2.7-7.6
			c0.1-0.4,0.1-0.7-0.2-0.7c-0.8,0-1.6,0.7-2.1,1.3c-0.2,0-0.4-0.2-0.3-0.4c0.6-1.2,1.9-2.2,3.7-2.2c0.6,0,0.8,0.4,0.6,1l-1.7,4.3
			l0.1,0c1.7-2.8,4-5.4,5.8-5.4C221.3,81.9,220.8,83.8,220.3,85z"/>
		<path d="M231.3,83.9c0.1-0.3,0.1-0.5,0-0.5s-0.8,0.3-2,1.3c-0.2,0-0.4-0.2-0.3-0.4c1.3-1.5,3.2-2.4,4-2.4c0.2,0,0.3,0.1,0.4,0.2
			c0.1,0.1,0.1,0.4-0.1,1.1l-2.9,6.8c-0.1,0.2-0.1,0.5,0.1,0.5c0.4,0,1.7-0.8,2.5-1.8c0.2,0,0.4,0.2,0.4,0.4
			c-0.4,0.7-2.8,2.9-4.5,2.9c-0.1,0-0.3-0.1-0.4-0.2c-0.1-0.2-0.2-0.4-0.1-0.6L231.3,83.9z M234.2,77.8c0,0.7-0.5,1.5-1.2,1.5
			c-0.6,0-0.8-0.5-0.8-0.9c0-0.5,0.3-1.5,1.3-1.5C233.9,76.9,234.2,77.3,234.2,77.8z"/>
		<path d="M237.9,87.1L237.9,87.1c1.8-2.5,4.1-5.2,5.9-5.2c0.9,0,1.3,0.5,1.3,1.3c0,0.4-0.2,1.1-0.4,1.7c-0.4,1.2-2.2,5.1-2.2,5.3
			c-0.1,0.2-0.1,0.5,0,0.5c0.4,0,1.6-0.8,2.3-1.6c0.3,0,0.4,0.1,0.4,0.3c-0.9,1.5-2.8,2.7-4.1,2.7c-0.2,0-0.6-0.3-0.6-0.6
			c0-0.2,0.1-0.4,0.6-1.6c0.5-1.2,1.4-3.5,1.9-4.7c0.2-0.4,0.5-1.3,0.5-1.8c0-0.3,0-0.6-0.4-0.6c-0.6,0-2,1.2-3.3,2.9
			c-1.3,1.6-2.3,3.5-3.7,6.1c-0.1,0.2-0.2,0.3-0.4,0.3c-0.3,0-0.9-0.1-0.7-0.6c0.1-0.3,2.7-7.2,2.8-7.6c0.1-0.3,0.1-0.6-0.1-0.6
			c-0.6,0-1.4,0.5-2.2,1.2c-0.2,0-0.3-0.2-0.3-0.4c0.9-1.2,2.4-2.2,3.6-2.2c0.6,0,0.8,0.4,0.6,1L237.9,87.1z"/>
		<path d="M253.3,82.1c0.3,0.1,0.5,0.2,0.6,0.2c0.2,0,0.7,0,1.2-0.1c0.5-0.1,0.9-0.2,1.1-0.2c0.3,0,0.5,0.2,0.5,0.6
			c0,0.6-0.3,0.7-0.5,0.7c-0.2,0-0.6-0.1-0.8-0.1c-0.2-0.1-0.7-0.1-0.9-0.1c-0.1,0-0.2,0.1-0.2,0.1c0,0.2,0.2,0.6,0.2,0.9
			c0,1.9-1.4,3.8-3,4.8c-0.3,0.2-1.2,0.5-1.7,0.6c-0.3,0.1-0.5,0.5-0.5,0.8c0,0.3,0.2,0.7,0.8,1.1c0.6,0.4,1.5,0.9,2.3,1.4
			c1.4,0.8,1.8,1.6,1.8,2.3c0,1.3-1.9,2.9-5.9,2.9c-1.8,0-3.8-0.7-3.8-2.3c0-1.8,2.8-3,4.1-3.4c-0.6-0.4-0.8-0.8-0.8-1.1
			c0-0.4,0.7-1.4,1.1-1.8c-0.5-0.1-1.8-0.6-1.8-2.2c0-1.3,0.7-3,1.9-4c1.2-1,2.3-1.4,3.5-1.4C252.8,81.9,253.1,82,253.3,82.1z
			 M252.5,95.7c0-0.4-0.3-0.9-1-1.5c-1-0.7-1.8-1.2-2.2-1.2c-0.6-0.1-1.5,0.4-2.2,0.9c-0.6,0.5-0.9,1-0.9,1.6c0,1.1,1.6,1.8,3.2,1.8
			C250.4,97.3,252.5,96.8,252.5,95.7z M250.7,83.6c-0.9,1.1-2.2,3.2-2.2,4.4c0,0.5,0.3,0.8,0.7,0.8c0.3,0,0.9-0.1,1.6-0.9
			c1.3-1.6,2.2-3.7,2.2-4.5c0-0.5-0.4-0.8-0.7-0.8C251.9,82.6,251.4,82.7,250.7,83.6z"/>
		<path d="M269.9,83.3c0,1-0.9,1.1-1.2,1.1s-0.4-0.1-0.5-0.4c-0.1-0.6,0-1.3-0.8-1.3c-0.5,0-1.3,0.5-2,1.6c-0.8,1.2-1.5,3.1-1.6,5
			c0,1.2,0.5,1.6,1,1.6c0.8,0,1.7-0.6,2.6-1.5c0.2,0,0.4,0.2,0.3,0.4c-0.9,1.2-2.4,2.3-4,2.3c-0.9,0-1.8-0.7-1.8-2.5
			c0-1.6,0.9-4.3,3-6.2c1-0.9,2-1.4,3.1-1.4C269.3,81.9,269.9,82.5,269.9,83.3z"/>
		<path d="M278.5,84.9c-0.1,1.3-0.8,3.6-2.5,5.4c-1.5,1.5-2.8,1.7-3.4,1.7c-1.5,0-2.5-1.1-2.4-3.2c0.1-1.5,1-3.8,2.6-5.4
			c1.2-1.2,2.3-1.6,3.3-1.6C277.7,81.9,278.6,83.1,278.5,84.9z M274.1,83.7c-1.4,1.9-2.3,4.7-2.4,6c0,0.8,0.3,1.5,1,1.5
			c0.5,0,1.1-0.2,1.9-1.2c1.1-1.4,2.2-4.6,2.2-5.9c0-0.7-0.1-1.6-1-1.6C275.4,82.6,274.8,82.8,274.1,83.7z"/>
		<path d="M289.5,85l-0.9,2.2l0.1,0c2.3-3.7,4.1-5.4,5.7-5.4c0.9,0,1.3,0.5,1.3,1.3c0,0.4-0.2,1.1-0.4,1.7c-0.4,1.2-2.2,5.1-2.2,5.3
			c-0.1,0.2-0.1,0.5,0,0.5c0.4,0,1.6-0.8,2.3-1.6c0.3,0,0.4,0.1,0.4,0.3c-0.9,1.5-2.8,2.7-4.1,2.7c-0.2,0-0.6-0.3-0.6-0.6
			c0-0.2,0.1-0.4,0.6-1.6c0.5-1.2,1.5-3.5,1.9-4.7c0.2-0.4,0.5-1.3,0.5-1.8c0-0.3,0-0.6-0.4-0.6c-0.7,0-1.8,1.2-3.1,2.9
			c-1.2,1.5-2.3,3.4-3.8,6.1c-0.1,0.2-0.2,0.3-0.4,0.3c-0.3,0-0.9-0.1-0.7-0.6l2.4-6.3c0.1-0.3,1.1-2.3,0.2-2.3
			c-0.7,0-2,1.2-3.3,2.9c-1.2,1.6-2.2,3.4-3.6,6.1c-0.1,0.2-0.2,0.3-0.4,0.3c-0.3,0-0.9-0.1-0.7-0.6c0.1-0.2,2.6-7.2,2.7-7.6
			c0.1-0.4,0.1-0.7-0.2-0.7c-0.8,0-1.6,0.7-2.1,1.3c-0.2,0-0.4-0.2-0.3-0.4c0.6-1.2,1.9-2.2,3.7-2.2c0.6,0,0.8,0.4,0.6,1l-1.7,4.3
			l0.1,0c1.7-2.8,4-5.4,5.8-5.4C290.5,81.9,290,83.8,289.5,85z"/>
		<path d="M302.5,82.3c0.2,0,0.5,0,0.9,0c1.1,0,3.3,0.5,3.3,2.7c0,2.2-1.3,4.1-3.2,5.7c-1.5,1.3-3.3,1.4-3.4,1.4
			c-0.2,0-0.4,0-0.7-0.1c-0.2,0-0.3,0.2-0.4,0.4l-1,2.8c-0.6,1.8-0.6,2.1,0.2,2.2l1,0.1c0.1,0.2,0.1,0.4-0.1,0.5
			c-1.8,0-3.6,0.1-5.2,0.1c-0.2-0.1-0.2-0.4,0-0.5l0.5-0.1c1.3-0.2,1.4-0.8,1.8-1.8l4.5-12.5c-0.9,0.2-1.4,0.5-2.4,1
			c-0.2,0-0.3-0.2-0.2-0.5c0.8-0.6,1.8-1,3-1.3l0.7-1.9c0.3-0.3,1.3,0,1.4,0.3L302.5,82.3z M299.8,90c-0.1,0.3-0.1,0.5,0,0.6
			c0.1,0.2,0.5,0.6,0.9,0.6c0.3,0,1.7-0.3,2.7-1.9c1.2-1.8,1.4-3.5,1.4-4.5c0-1.2-0.9-1.8-1.9-1.8c-0.3,0-0.5,0-0.6,0L299.8,90z"/>
		<path d="M316.6,81.3c0.4-0.2,1,0,1.2,0.4c-0.4,0.9-2.4,6.2-3.2,8.4c-0.1,0.4,0,0.6,0.2,0.6c0.4,0,1.1-0.4,2.5-1.6
			c0.2,0,0.3,0.1,0.3,0.3c-1,1.3-2.7,2.7-4,2.7c-0.6,0-0.7-0.5-0.7-0.6c0-0.2,0-0.4,0.2-0.9l0.8-2.2l-0.1,0
			c-1.7,2.1-4.1,3.8-5.3,3.8c-0.7,0-1.1-0.7-1.1-1.3c0-0.6,0.5-2.5,2.1-4.7c1.2-1.6,2.2-2.5,3.2-3.1c0.9-0.5,1.5-0.7,2.2-0.7
			c0.3,0,0.4,0.1,0.6,0.1c0.1,0,0.4,0.3,0.5,0.5L316.6,81.3z M312.4,84.1c-1.5,1.4-3,4.5-3,6.2c0,0.3,0.1,0.5,0.4,0.5
			c0.2,0,1-0.3,2.3-1.6c1.8-1.7,2.8-3.8,3.2-5.2c-0.2-0.5-0.6-0.9-1.2-0.9C313.6,83.1,313.2,83.4,312.4,84.1z"/>
		<path d="M321.9,87.1L321.9,87.1c1.8-2.5,4.1-5.2,5.9-5.2c0.9,0,1.3,0.5,1.3,1.3c0,0.4-0.2,1.1-0.4,1.7c-0.4,1.2-2.2,5.1-2.2,5.3
			c-0.1,0.2-0.1,0.5,0,0.5c0.4,0,1.6-0.8,2.3-1.6c0.3,0,0.4,0.1,0.4,0.3c-0.9,1.5-2.8,2.7-4.1,2.7c-0.2,0-0.6-0.3-0.6-0.6
			c0-0.2,0.1-0.4,0.6-1.6c0.5-1.2,1.4-3.5,1.9-4.7c0.2-0.4,0.5-1.3,0.5-1.8c0-0.3,0-0.6-0.4-0.6c-0.6,0-2,1.2-3.3,2.9
			c-1.3,1.6-2.3,3.5-3.7,6.1c-0.1,0.2-0.2,0.3-0.4,0.3c-0.3,0-0.9-0.1-0.7-0.6c0.1-0.3,2.7-7.2,2.8-7.6c0.1-0.3,0.1-0.6-0.1-0.6
			c-0.6,0-1.4,0.5-2.2,1.2c-0.2,0-0.3-0.2-0.3-0.4c0.9-1.2,2.4-2.2,3.6-2.2c0.6,0,0.8,0.4,0.6,1L321.9,87.1z"/>
		<path d="M334.9,86c0,1.5,0,3.3-0.4,5.3h0.1c0.8-1.2,1.5-2.7,2-4.1c0.5-1.4,0.9-3.8,0.9-4.4c0-0.7,0.4-0.7,0.6-0.7
			c0.2,0,0.5,0.1,0.7,0.2c0.1,0.1,0.2,0.2,0.2,0.5c0,0.6-0.6,3.7-2.8,7.3c-1.2,2-2,3.6-4,5.8c-1.8,2-3,2.4-3.7,2.4
			c-0.8,0-1.2-0.5-1.2-1.1c0-0.6,0.4-1,1-1c0.2,0,0.5,0.1,0.6,0.4c0.1,0.1,0.3,0.4,0.7,0.4c0.3,0,0.7-0.2,1.3-0.7
			c0.6-0.5,1.7-2,2.1-3.6c0.3-1.2,0.5-3.4,0.5-5.5c0-2.7-0.5-3.6-0.9-3.6c-0.5,0-0.9,0.8-1.4,1.8c-0.3,0.1-0.4-0.1-0.5-0.3
			c0.5-1.6,1.6-3.1,2.7-3.1C334.6,81.9,334.8,84.3,334.9,86z"/>
	</g>
	<g id="yWorks_3_">
		<path d="M41,35.8c-3.5,0-6.4,4.2-7.9,8.8c0.1,0.6,0.6,1.2,1.4,0.9c1.4-2.8,2.6-5.3,4-5.3c1.3,0,2.4,2.7,2.6,10.4
			c0.1,5.9-0.4,12.3-1.3,15.9c-1.4,4.5-4.4,8.8-6.2,10.4c-1.7,1.4-2.9,1.9-3.8,1.9c-1,0-1.7-0.9-1.9-1.3c-0.5-0.6-1.2-1.2-1.8-1.2
			c-1.5,0-2.8,1.3-2.8,3.1c0,1.7,1.4,3.2,3.6,3.2s5.6-1.2,10.8-7c5.6-6.3,8.1-10.9,11.5-16.7c6.2-10.4,8.1-19.4,7.9-21.1
			c0-0.8-0.1-1-0.6-1.3c-0.5-0.4-1.4-0.6-1.9-0.6c-0.4,0-1.5,0.1-1.7,2.1c0,1.8-1,8.8-2.6,12.8c-1.5,4.2-3.5,8.6-5.8,11.9h-0.3
			c0.9-5.6,1-10.8,1-15.2C45.1,42.7,44.4,35.8,41,35.8z"/>
		<path d="M56.6,19.9c2.3,0.3,2.9,2.2,4,5c3.7,9.6,7,19.2,10.6,28.8c0.8,2.1,2.9,8.2,3.8,11.1c0.3,0.1,0.5,0.3,0.8,0.3
			c0.4,0,0.5-0.1,0.8-0.3c1.5-5.8,4.9-14.6,6.9-19.6c1.7,4.7,4.9,13.5,6.7,19.6c0.3,0.1,0.5,0.3,0.8,0.3s0.5-0.1,0.6-0.3
			c2.3-7.4,4.6-14.2,6.9-21.3l4.1-11.7c3.3-9.6,3.8-11.8,6.5-12.1l1.2-0.1c0.4-0.6,0.3-1.5-0.1-1.7c-1.5,0.1-3.1,0.1-5.3,0.1
			c-1.7,0-3.2,0-5.3-0.1c-0.5,0.3-0.5,1,0,1.7l1.5,0.1c1.2,0,1.8,0.6,1.8,1.5c0,0.9-0.9,3.8-1.7,6.3C100.9,29,98,38.3,97,41.6
			c-1.7,4.9-3.3,9.7-5,14.6c-1.8-5.3-3.8-10.5-5.6-15.8c-0.3-0.9-0.4-1.4-0.4-1.7c0-0.3,0.1-1,0.5-1.7c0.8-2.4,3.1-8.5,4.2-11
			c1.3-2.8,2.3-6,4.6-6.2l1.5-0.1c0.4-0.6,0.3-1.5-0.1-1.7c-1.2,0.1-3.5,0.1-5.3,0.1c-2.1,0-3.7,0-5.3-0.1c-0.4,0.1-0.5,0.9-0.1,1.7
			l1.7,0.1c1.8,0.1,2,0.9,0.1,6.8c-1.3,3.7-2.2,6.3-3.3,9.1c-1.5-4.4-3.1-8.7-4.2-12.1c-1.2-3.2-1-3.7,1.2-3.8l1.4-0.1
			c0.4-0.6,0.4-1.5-0.1-1.7c-1.2,0.1-3.2,0.1-6,0.1c-2.2,0-4.4,0-5.9-0.1c-0.5,0.3-0.5,1-0.1,1.7l1.3,0.1c1.9,0.1,2.7,1.7,3.6,3.8
			c2.1,5.5,4.1,11,6,16.5c0.4,0.9,0.5,1.5,0.5,1.8c0,0.4-0.5,1.5-0.9,2.8c-1.5,4-2.9,7.8-4.2,11.3c-3.2-8.5-6.5-17.2-9.6-25.9
			c-1.8-4.9-2.9-8.5-2.9-9.2c0-0.6,0.8-1,1.9-1.2l1.3-0.1c0.3-0.5,0.4-1.5-0.1-1.7c-1.9,0.1-4.9,0.1-6.4,0.1c-1.7,0-4.1,0-5.6-0.1
			c-0.5,0.3-0.5,1.2-0.1,1.7L56.6,19.9z"/>
		<path d="M115.9,35.8c-0.1,0-0.1,0-0.3,0v2.1c5,0.4,6.8,7.6,6.8,13.3c0,5.4-1.5,11.7-6.4,11.7c-0.1,0-0.3,0-0.4,0v2.2
			c6.8-0.1,11.5-6.3,11.5-15C127.2,41.6,122.2,35.8,115.9,35.8z M115.7,35.8c-6.4,0.1-11.5,6.3-11.5,14.9c0,8.7,5,14.4,11.4,14.4
			c0,0,0,0,0.1,0v-2.2c-4.6-0.3-6.8-6.9-6.8-13.1c0-7.6,2.7-11.9,6.4-11.9c0.1,0,0.3,0,0.4,0L115.7,35.8L115.7,35.8z"/>
		<path d="M135.3,56.2c0,5,0,5.6-2.1,6l-1,0.3c-0.4,0.4-0.4,1.5,0,1.8c1.5-0.1,3.2-0.3,5.1-0.3c1.9,0,3.6,0.1,6.2,0.3
			c0.4-0.3,0.5-1.4,0.1-1.8l-1.9-0.3c-2.2-0.1-2.3-1-2.3-6v-9.4c0-2.3,0.3-4.4,0.8-5.4c0.4-0.6,1.2-1.3,1.9-1.3c0.9,0,1.7,0.4,2.6,1
			c0.4,0.3,0.6,0.5,1.2,0.5c0.9,0,2.4-0.9,2.4-3.2c0-1.7-1.2-2.7-2.6-2.7c-2.1,0-4.1,2.1-6,4.1c-0.1-0.1-0.3-0.3-0.3-0.6v-4
			c0-0.3-0.1-0.4-0.4-0.5c-1.4,1-4.4,2.8-5.6,3.5c-0.3,0.1-0.3,0.9,0,1.2l0.5,0.4c1.4,1.3,1.4,1.7,1.4,4.4L135.3,56.2L135.3,56.2z"
			/>
		<path d="M153.6,56.2c0,5-0.1,5.8-2.2,6l-1.2,0.3c-0.5,0.4-0.4,1.5,0,1.8c1.7-0.1,3.3-0.3,5.4-0.3c1.9,0,3.6,0.1,5.4,0.3
			c0.4-0.3,0.5-1.4,0.1-1.8l-1.4-0.3c-1.9-0.3-2.1-1-2.1-6v-3.7c0-2.2,0-2.4,1-2.4c0.6,0,1.3,0.4,1.8,1l5.9,8.6
			c0.6,1,0.9,1.5,0.9,1.9c0,0.4-0.5,0.5-1.4,0.6l-0.9,0.3c-0.4,0.3-0.4,1.5,0,1.8c1.7-0.1,3.6-0.3,5.8-0.3c1.8,0,3.7,0.1,5.3,0.3
			c0.5-0.3,0.5-1.4,0.1-1.8l-0.8-0.1c-1-0.3-2.1-0.6-2.8-1.5c-1.2-1.3-3.1-4-5.3-7c-1.9-2.6-2.7-4-3.7-5.5c-0.3-0.5-0.3-0.9,0.4-1.7
			c1-1.2,2.9-3.7,5.1-5.8c1.4-1.5,2.3-2.2,3.5-2.4l1.8-0.5c0.3-0.3,0.3-1.5-0.1-1.7c-3.1,0.4-6.4,0.5-8.8,0.5h-1.3
			c-0.5,0.3-0.5,1.5,0,1.8l1.3,0.3c1,0.1,1.3,0.3,1.3,0.6s-0.4,1.2-1.9,3.2l-2.3,2.9c-1.5,2.1-2.6,2.7-3.7,2.7c-1,0-1-0.1-1-1V23.5
			c0-3.1,0.1-6.5,0.1-8.6c-0.1-0.3-0.3-0.4-0.5-0.4c-2.1,1.3-4.6,2.3-6,2.8c-0.3,0.3-0.3,1.3,0,1.4l0.5,0.4c1.7,1.3,1.8,1.7,1.8,5.8
			L153.6,56.2L153.6,56.2z"/>
		<path d="M186.6,35.8c-4.2,0-7.6,2.8-7.6,7.8c0,3.8,2.3,6.3,5.5,8.6c2.1,1.4,4.2,3.2,4.2,6.3S187.1,63,185,63c-3.2,0-5-3.3-5.9-7.2
			c-0.3-0.4-1-0.3-1.3,0.1c-0.1,2.3,0.3,5.6,0.6,6.9c1.4,1.4,3.3,2.2,6,2.2c4.1,0,7.9-2.7,7.9-8c0-4.9-2.7-7.3-5.6-9.4
			c-1.9-1.4-4.2-2.9-4.2-5.8c0-2.4,1.3-4.2,3.5-4.2c2.3,0,4,2.1,4.9,5.1c0.3,0.4,1.2,0.3,1.4-0.3c0-1.8-0.4-4.1-0.9-5.6
			C190.9,36.5,188.9,35.8,186.6,35.8z"/>
	</g>
</g>
</svg>
