<?xml version="1.0" encoding="utf-8"?>
<!-- Generator: Adobe Illustrator 18.0.0, SVG Export Plug-In . SVG Version: 6.00 Build 0)  -->
<!DOCTYPE svg PUBLIC "-//W3C//DTD SVG 1.1//EN" "http://www.w3.org/Graphics/SVG/1.1/DTD/svg11.dtd">
<svg version="1.1" id="Ebene_1" xmlns="http://www.w3.org/2000/svg" xmlns:xlink="http://www.w3.org/1999/xlink" x="0px" y="0px"
	  width="201px" height="104px" viewBox="0 792 201 104" enable-background="new 0 792 201 104" xml:space="preserve">
<g>
	<path id="bright__x28_websafe_x29__3_" fill="#6699CC" d="M3.3,844.9c0-27,21.9-48.9,48.9-48.9c27,0,48.9,21.9,48.9,48.9
		c0,27-21.9,48.9-48.9,48.9C25.2,893.8,3.3,871.9,3.3,844.9L3.3,844.9z"/>
	
		<radialGradient id="Highlited_bright__x28_websafe_x29__1_" cx="39.6964" cy="1007.0849" r="76.8597" fx="39.9786" fy="997.3089" gradientTransform="matrix(0.7409 0 0 0.7409 2.6944 89.1871)" gradientUnits="userSpaceOnUse">
		<stop  offset="7.460000e-002" style="stop-color:#FFFFFF"/>
		<stop  offset="0.1902" style="stop-color:#E9F0F8"/>
		<stop  offset="0.5784" style="stop-color:#A3C1E0"/>
		<stop  offset="0.8584" style="stop-color:#77A4D2"/>
		<stop  offset="1" style="stop-color:#6699CC"/>
	</radialGradient>
	<path id="Highlited_bright__x28_websafe_x29__3_" fill="url(#Highlited_bright__x28_websafe_x29__1_)" d="M3.3,844.9
		c0-27,21.9-48.9,48.9-48.9c27,0,48.9,21.9,48.9,48.9c0,27-21.9,48.9-48.9,48.9C25.2,893.8,3.3,871.9,3.3,844.9L3.3,844.9z"/>
	<path id="rays_3_" fill="none" stroke="#DFE8F7" stroke-width="0.5594" stroke-miterlimit="10" d="M37.7,798.1v93.6 M48.6,796.1
		l-16.5,93.4 M59.9,796.6L27,887 M71.1,799.7l-48.6,84.1 M81.3,805.5l-62.9,74.8 M89.8,813.6l-75,63 M96.3,823.6l-84.6,48.9
		 M100,834.7L8.9,867.9 M101.1,846.2L6.6,862.8 M99.5,857.3H4.8 M95.6,867.5L3.7,851.4 M89.7,876.4L3.3,844.8 M82.7,883.2l-79-45.5
		 M74.7,888.3l-69.2-58 M66.5,891.8L8.7,822.6 M58.5,893.4l-45.2-78.3 M51.1,893.8l-31.3-85.7 M44.1,893.2l-16-90.8 M32.8,800
		l8.1,92.6 M43.1,796.8l-8.3,93.9 M54.3,796l-24.8,92.3 M65.6,797.8l-40.9,87.7 M76.3,802.3l-56,79.8 M85.8,809.4l-69.2,69.2
		 M93.4,818.5l-80.2,56.1 M98.5,829.1l-88.2,41.1 M101,840.5L7.7,865.5 M100.6,852l-95,8.3 M97.8,862.7l-93.7-8.3 M92.9,872.2
		l-89.6-24 M86.3,880.1L3.4,841.4 M78.7,886L4.4,834 M70.7,890.3L6.9,826.5 M62.5,892.8l-51.8-73.9 M54.7,893.8l-38.3-82.3
		 M47.5,893.6l-23.8-88.5"/>
	<g id="the_diagramming_company_3_" display="none">
		<path display="inline" d="M103.3,867.7c0.1,0,0.1-0.3,0.1-0.3h-1.1l0.3-1c-0.1-0.1-0.3-0.1-0.4-0.1l-0.6,1l-0.8,0.1
			c-0.1,0.1-0.1,0.3-0.1,0.3h0.8l-1,2.9c-0.1,0.3-0.1,0.4-0.1,0.6c0,0.1,0.1,0.3,0.3,0.3c0.4,0,1.4-0.7,1.9-1.5c0-0.1,0-0.1-0.1-0.1
			c-0.3,0.4-1,0.8-1.1,0.8c-0.1,0-0.1,0-0.1-0.1l1-2.8H103.3L103.3,867.7z"/>
		<path display="inline" d="M103.1,871.1c0,0.1,0.3,0.3,0.3,0.3c0.1,0,0.1-0.1,0.3-0.1c0.3-0.6,0.7-1.5,1.1-2.1
			c0.6-0.7,1-1.1,1.4-1.4c0.1-0.1,0.4-0.3,0.6-0.3c0.1,0,0.1,0.1,0.1,0.3c0,0.6-0.4,1.9-0.7,2.6c-0.1,0.4-0.3,0.6-0.4,0.6
			c0,0-0.1-0.1-0.3-0.1c0-0.1-0.1-0.1-0.1-0.1c-0.1,0-0.3,0.1-0.3,0.4c0,0,0,0.3,0.4,0.3c0.1,0,0.4-0.1,0.7-0.4
			c0.3-0.3,0.4-0.6,0.7-0.8c0.4-0.7,0.8-1.7,0.8-2.3c0-0.4-0.3-0.7-0.7-0.7c-0.3,0-0.6,0.1-1,0.4c-0.3,0.3-0.8,0.7-1.5,1.7l0,0l0,0
			l1-3c0.3-0.6,0.6-1.5,0.7-2.1v-0.1c-0.3,0.1-1,0.3-1.1,0.3c-0.1,0-0.1,0.1-0.1,0.1l0.3,0.1c0.1,0.1,0.1,0.3-0.1,1L103.1,871.1z"/>
		<path display="inline" d="M110.7,867.1c-0.1,0-0.4,0-0.8,0.3v0.4c0.3-0.3,0.6-0.4,0.7-0.4c0.1,0,0.3,0.1,0.3,0.3
			c0,0-0.1,0.4-0.4,0.7c-0.1,0.1-0.4,0.3-0.6,0.3v0.4c1-0.3,1.5-0.8,1.5-1.4C111.3,867.4,111,867.1,110.7,867.1L110.7,867.1z
			 M109.8,871c0.3-0.1,0.4-0.3,0.6-0.6c0-0.1,0-0.1-0.1-0.1c-0.1,0.1-0.3,0.3-0.4,0.3V871L109.8,871z M109.8,867.4
			c-0.1,0-0.1,0.1-0.3,0.1c-1.1,1-1.5,2.1-1.5,2.8c0,0.6,0.1,1.1,0.8,1.1c0.3,0,0.6-0.1,1-0.4v-0.4c-0.1,0.1-0.4,0.3-0.6,0.3
			c-0.3,0-0.6-0.3-0.6-0.6c0-0.4,0.1-0.7,0.1-1c0.4,0,0.7-0.1,1-0.3v-0.4c-0.1,0.3-0.4,0.3-0.8,0.4c0.1-0.3,0.3-0.7,0.7-1.1
			c0.1-0.1,0.1-0.1,0.1-0.1L109.8,867.4L109.8,867.4z"/>
		<path display="inline" d="M117.5,867.4c-0.1-0.1-0.4-0.3-0.6-0.3c-0.3,0-0.7,0.1-1.1,0.4v0.7c0.1-0.1,0.1-0.3,0.3-0.4
			c0.3-0.3,0.6-0.4,0.8-0.4s0.3,0.3,0.3,0.7c-0.3,0.6-0.6,1.2-1.2,1.9c-0.1,0.1-0.1,0.1-0.1,0.1v0.6c0.3-0.4,0.7-0.8,1-1.2l0,0
			l-0.3,1c-0.1,0.3-0.1,0.4-0.1,0.6c0,0.3,0.1,0.4,0.3,0.4c0.6,0,1.5-0.8,1.8-1.4c-0.1-0.1-0.1-0.1-0.3-0.1
			c-0.3,0.4-0.8,0.8-1.1,0.8c0,0,0,0,0-0.1c0.1-0.4,0.6-1.9,1.5-4.7c0.4-0.8,0.6-1.2,0.7-1.8v-0.1c-0.6,0-1.1,0.1-1.2,0.3v0.1
			l0.1,0.1c0.1,0.1,0.1,0.3,0,0.8L117.5,867.4z M115.9,867.5c-0.3,0.1-0.6,0.3-0.7,0.4c-0.8,0.8-1.4,1.9-1.4,2.6
			c0,0.4,0.3,0.8,0.6,0.8c0.6,0,1.1-0.3,1.5-0.7v-0.6c-0.7,0.7-1.1,0.8-1.2,0.8s-0.3-0.1-0.3-0.3c0-0.1,0-0.3,0.4-1
			c0.1-0.4,0.7-1.1,1.1-1.5V867.5z"/>
		<path display="inline" d="M118.8,871c0,0.1,0,0.3,0.1,0.3c0,0,0,0.1,0.1,0.1c0.7,0,1.7-1,1.9-1.2c0-0.1-0.1-0.1-0.3-0.1
			c-0.3,0.4-0.8,0.7-1,0.7c-0.1,0-0.1-0.1,0-0.1l1.1-2.9c0.1-0.3,0.1-0.4,0.1-0.4c-0.1-0.1-0.1-0.1-0.1-0.1c-0.4,0-1.1,0.4-1.7,1
			c-0.1,0.1,0,0.1,0,0.1c0.6-0.4,0.8-0.4,1-0.4c0,0,0,0,0,0.1L118.8,871L118.8,871z M121,864.6c-0.3,0-0.4,0.4-0.4,0.7
			c0,0.1,0,0.4,0.3,0.4s0.6-0.4,0.6-0.7C121.4,864.9,121.3,864.6,121,864.6z"/>
		<path display="inline" d="M124.8,867.5c0-0.1-0.1-0.3-0.1-0.3c-0.1,0-0.1,0-0.3,0c-0.3,0-0.6,0-1,0.3c0,0,0,0-0.1,0.1v0.4
			c0,0,0,0,0.1,0c0.3-0.4,0.4-0.4,0.7-0.4s0.4,0.1,0.4,0.3c-0.1,0.6-0.6,1.4-1.2,2.1v0.4c0.3-0.3,0.4-0.4,0.7-0.7l0,0l-0.4,1
			c0,0.3,0,0.3,0,0.4c0,0,0,0.3,0.3,0.3c0.6,0,1.2-0.6,1.7-1.1c0-0.1,0-0.1-0.1-0.1c-0.6,0.4-0.8,0.6-1,0.6c-0.1,0-0.1,0-0.1-0.1
			c0.3-1,1.2-3.2,1.4-3.6c-0.1-0.1-0.4-0.1-0.6-0.1L124.8,867.5z M123.3,867.7c-0.3,0.1-0.7,0.6-1.1,1.1c-0.7,1-1,1.8-1,2.1
			c0,0.3,0.3,0.6,0.6,0.6c0.3,0,1-0.4,1.5-1V870c0,0.1,0,0.1,0,0.1c-0.7,0.6-1,0.7-1.1,0.7c0,0-0.1-0.1-0.1-0.3
			c0-0.7,0.7-1.9,1.2-2.5V867.7L123.3,867.7z"/>
		<path display="inline" d="M128.3,867.1c-0.6,0-1,0.1-1.4,0.6v1c0.1-0.3,0.4-0.6,0.6-0.8c0.3-0.4,0.6-0.4,0.7-0.4
			c0.1,0,0.3,0.1,0.3,0.3c0,0.4-0.3,1.2-0.8,1.9c-0.3,0.3-0.6,0.4-0.7,0.4v0.4l0.1-0.1c0.3,0,0.6-0.1,0.7-0.3
			c0.7-0.4,1.2-1.1,1.2-1.9c0-0.1,0-0.4,0-0.4s0-0.1,0.1-0.1l0.3,0.1c0.1,0,0.3,0,0.4,0c0,0,0.1,0,0.1-0.3c0-0.1,0-0.3-0.1-0.3
			c-0.1,0-0.3,0-0.4,0.1c-0.3,0-0.4,0-0.6,0c0,0-0.1,0-0.3,0C128.4,867.1,128.4,867.1,128.3,867.1L128.3,867.1z M126.9,873.9
			c1.4-0.1,1.9-0.7,1.9-1.1s-0.1-0.7-0.7-1c-0.4-0.3-0.7-0.6-1-0.7c-0.1,0-0.3-0.1-0.3-0.3v1c0.1,0,0.6,0.3,1,0.4
			c0.3,0.3,0.4,0.6,0.4,0.7c0,0.4-1,0.7-1.4,0.7l0,0L126.9,873.9L126.9,873.9z M126.9,867.7h-0.1c-0.6,0.4-0.8,1.1-0.8,1.8
			c0,0.6,0.6,0.8,0.8,0.8c-0.1,0.1-0.6,0.6-0.6,0.8c0,0.1,0.1,0.3,0.4,0.4c-0.6,0.1-1.8,0.7-1.8,1.4c0,0.7,0.8,1,1.7,1
			c0.1,0,0.3,0,0.4,0v-0.3c-0.7,0-1.4-0.3-1.4-0.8c0-0.1,0.1-0.4,0.4-0.6c0.3-0.3,0.7-0.4,1-0.4l0,0v-1l-0.1-0.1
			c0-0.1,0.1-0.1,0.1-0.3V870l0,0c-0.1,0-0.3-0.1-0.3-0.4c0-0.1,0.1-0.6,0.3-1L126.9,867.7L126.9,867.7z"/>
		<path display="inline" d="M131.2,867.1c-0.6,0-1,0.4-1.2,1c0,0.1,0,0.1,0.1,0.1c0.3-0.3,0.6-0.6,0.7-0.6c0.1,0,0.1,0.1,0.1,0.3
			c-0.3,1-1,2.8-1.1,3.2c0,0.1,0.3,0.3,0.4,0.3l0.1-0.1c0.6-1.2,1.1-2.5,1.8-3.2c0.1-0.3,0.1-0.3,0.3-0.3c0.1,0,0.1,0.1,0.3,0.3
			c0,0.3,0.1,0.3,0.3,0.1c0.1-0.1,0.3-0.4,0.3-0.7c0-0.1-0.1-0.4-0.4-0.4c-0.3,0-0.6,0.1-0.8,0.6c-0.3,0.3-0.7,1.1-1,1.7h-0.1
			l0.4-1.2C131.4,867.8,131.6,867.1,131.2,867.1z"/>
		<path display="inline" d="M136.4,867.5c0-0.1-0.1-0.3-0.1-0.3c-0.1,0-0.1,0-0.3,0c-0.3,0-0.6,0-1,0.3c0,0,0,0-0.1,0.1v0.4l0,0
			c0.4-0.4,0.6-0.4,0.8-0.4c0.1,0,0.4,0.1,0.4,0.3c-0.1,0.6-0.6,1.4-1.2,2.1v0.4c0.3-0.3,0.4-0.4,0.6-0.7h0.1l-0.4,1
			c0,0.3,0,0.3,0,0.4c0,0,0,0.3,0.3,0.3c0.6,0,1.2-0.6,1.7-1.1c0-0.1-0.1-0.1-0.1-0.1c-0.6,0.4-0.8,0.6-1.1,0.6c0,0-0.1,0,0-0.1
			c0.3-1,1.2-3.2,1.4-3.6c-0.1-0.1-0.4-0.1-0.6-0.1L136.4,867.5z M134.9,867.7c-0.3,0.1-0.7,0.6-1.1,1.1c-0.7,1-1,1.8-1,2.1
			c0,0.3,0.1,0.6,0.4,0.6c0.4,0,1.1-0.4,1.7-1V870c0,0.1,0,0.1-0.1,0.1c-0.6,0.6-0.8,0.7-1,0.7c0,0-0.1-0.1-0.1-0.3
			c0-0.7,0.7-1.9,1.2-2.5L134.9,867.7L134.9,867.7z"/>
		<path display="inline" d="M141.4,867.1c-0.8,0-1.8,1.1-2.5,2.2l0,0l0.7-1.8c0.1-0.3,0-0.4-0.3-0.4c-0.7,0-1.2,0.4-1.5,1
			c0,0,0,0.1,0.1,0.1c0.3-0.3,0.6-0.6,1-0.6c0,0,0,0.1,0,0.3c0,0.1-1.1,3-1.1,3.2c-0.1,0.1,0.1,0.3,0.3,0.3l0.1-0.1
			c0.6-1.1,1-1.9,1.5-2.6c0.6-0.7,1.1-1.1,1.4-1.1c0.4,0,0,0.8,0,1l-1.1,2.6c0,0.1,0.3,0.3,0.4,0.3c0,0,0-0.1,0.1-0.1
			c0.6-1.1,1.1-1.9,1.5-2.6c0.6-0.7,1.1-1.1,1.4-1.1c0.1,0,0.1,0,0.1,0.1c0,0.3-0.1,0.6-0.1,0.8c-0.3,0.4-0.7,1.4-0.8,1.9
			c-0.3,0.6-0.3,0.6-0.3,0.7c0,0.1,0.1,0.3,0.3,0.3c0.6,0,1.2-0.6,1.7-1.1c0-0.1,0-0.3-0.1-0.3c-0.3,0.4-0.8,0.7-1,0.7
			c0,0,0,0,0-0.1s0.7-1.7,1-2.2c0-0.3,0.1-0.6,0.1-0.7c0-0.4-0.1-0.6-0.6-0.6c-0.7,0-1.5,0.7-2.5,2.2l0,0l0.4-1
			C141.8,867.9,142.1,867.1,141.4,867.1z"/>
		<path display="inline" d="M148.7,867.1c-0.7,0-1.7,1.1-2.5,2.2l0,0l0.7-1.8c0.1-0.3,0-0.4-0.1-0.4c-0.8,0-1.4,0.4-1.7,1l0.1,0.1
			c0.3-0.3,0.6-0.6,1-0.6c0.1,0,0.1,0.1,0,0.3c0,0.1-1.1,3-1.1,3.2c-0.1,0.1,0.1,0.3,0.3,0.3c0.1,0,0.1-0.1,0.1-0.1
			c0.7-1.1,1.1-1.9,1.5-2.6c0.6-0.7,1.1-1.1,1.4-1.1c0.4,0,0,0.8,0,1l-1,2.6c-0.1,0.1,0.1,0.3,0.3,0.3l0.1-0.1
			c0.7-1.1,1.1-1.9,1.7-2.6c0.4-0.7,1-1.1,1.2-1.1c0.1,0,0.1,0,0.1,0.1c0,0.3-0.1,0.6-0.1,0.8c-0.3,0.4-0.7,1.4-0.8,1.9
			c-0.3,0.6-0.3,0.6-0.3,0.7c0,0.1,0.1,0.3,0.3,0.3c0.6,0,1.4-0.6,1.7-1.1c0-0.1,0-0.3-0.1-0.3c-0.3,0.4-0.7,0.7-1,0.7
			c0,0,0,0,0-0.1s0.8-1.7,1-2.2c0.1-0.3,0.1-0.6,0.1-0.7c0-0.4-0.1-0.6-0.6-0.6c-0.7,0-1.4,0.7-2.3,2.2h-0.1l0.4-1
			C149.2,867.9,149.4,867.1,148.7,867.1z"/>
		<path display="inline" d="M152.3,871c0,0.1,0,0.3,0.1,0.3c0,0,0,0.1,0.1,0.1c0.7,0,1.7-1,1.9-1.2c0-0.1-0.1-0.1-0.3-0.1
			c-0.3,0.4-0.8,0.7-1,0.7c-0.1,0-0.1-0.1,0-0.1l1.1-2.9c0.1-0.3,0.1-0.4,0.1-0.4c-0.1-0.1-0.1-0.1-0.1-0.1c-0.4,0-1.1,0.4-1.7,1
			c-0.1,0.1,0,0.1,0,0.1c0.6-0.4,0.8-0.4,1-0.4c0,0,0,0,0,0.1L152.3,871L152.3,871z M154.5,864.6c-0.3,0-0.4,0.4-0.4,0.7
			c0,0.1,0,0.4,0.3,0.4c0.3,0,0.6-0.4,0.6-0.7C154.9,864.9,154.7,864.6,154.5,864.6z"/>
		<path display="inline" d="M157.1,867.5c0-0.3,0-0.4-0.3-0.4c-0.6,0-1.1,0.4-1.5,1c0,0,0,0.1,0.1,0.1c0.3-0.3,0.7-0.6,1-0.6
			c0,0,0,0.1,0,0.3c-0.1,0.1-1.1,3-1.2,3.2c0,0.1,0.3,0.3,0.3,0.3c0.1,0,0.1-0.1,0.3-0.1c0.6-1.1,1-1.9,1.5-2.6
			c0.6-0.7,1.1-1.1,1.4-1.1c0.1,0,0.1,0,0.1,0.1c0,0.3-0.1,0.6-0.1,0.8c-0.3,0.4-0.7,1.4-0.8,1.9c-0.3,0.6-0.3,0.6-0.3,0.7
			c0,0.1,0.1,0.3,0.3,0.3c0.6,0,1.2-0.6,1.7-1.1c0-0.1,0-0.3-0.1-0.3c-0.3,0.4-0.8,0.7-1,0.7c0,0,0,0,0-0.1s0.8-1.7,1-2.2
			c0-0.3,0.1-0.6,0.1-0.7c0-0.4-0.1-0.6-0.6-0.6c-0.8,0-1.8,1.1-2.5,2.2l0,0L157.1,867.5z"/>
		<path display="inline" d="M162.5,867.1c-0.4,0-0.8,0.1-1.4,0.6v1c0.3-0.3,0.4-0.6,0.7-0.8c0.3-0.4,0.4-0.4,0.7-0.4
			c0.1,0,0.3,0.1,0.3,0.3c0,0.4-0.4,1.2-1,1.9c-0.3,0.3-0.6,0.4-0.7,0.4v0.4c0.1,0,0.1-0.1,0.3-0.1c0.1,0,0.6-0.1,0.7-0.3
			c0.7-0.4,1.2-1.1,1.2-1.9c0-0.1,0-0.4-0.1-0.4l0.1-0.1c0.1,0,0.3,0.1,0.4,0.1c0.1,0,0.3,0,0.3,0c0.1,0,0.3,0,0.3-0.3
			c0-0.1-0.1-0.3-0.3-0.3c0,0-0.3,0-0.4,0.1c-0.1,0-0.4,0-0.4,0c-0.1,0-0.1,0-0.3,0C162.7,867.1,162.6,867.1,162.5,867.1
			L162.5,867.1z M161.1,873.9c1.4-0.1,2.1-0.7,2.1-1.1s-0.1-0.7-0.7-1c-0.4-0.3-0.8-0.6-1.1-0.7c-0.1,0-0.1-0.1-0.3-0.3v1
			c0.3,0,0.6,0.3,1,0.4c0.3,0.3,0.4,0.6,0.4,0.7c0,0.4-0.8,0.7-1.2,0.7c-0.1,0-0.1,0-0.1,0L161.1,873.9L161.1,873.9z M161.1,867.7
			L161.1,867.7c-0.6,0.4-0.8,1.1-0.8,1.8c0,0.6,0.6,0.8,0.7,0.8c-0.1,0.1-0.4,0.6-0.4,0.8c0,0.1,0,0.3,0.3,0.4
			c-0.6,0.1-1.7,0.7-1.7,1.4c0,0.7,0.8,1,1.5,1c0.1,0,0.3,0,0.4,0v-0.3c-0.7,0-1.2-0.3-1.2-0.8c0-0.1,0-0.4,0.3-0.6
			c0.4-0.3,0.7-0.4,1-0.4l0,0v-1v-0.1c0-0.1,0-0.1,0-0.3V870l0,0c-0.1,0-0.3-0.1-0.3-0.4c0-0.1,0.1-0.6,0.3-1L161.1,867.7
			L161.1,867.7z"/>
		<path display="inline" d="M169.1,867.1c-0.6,0-1,0.1-1.4,0.6c-0.8,0.8-1.2,1.9-1.2,2.6c0,0.8,0.4,1.1,0.7,1.1c0.7,0,1.4-0.4,1.7-1
			c0.1-0.1,0-0.1,0-0.1c-0.4,0.3-0.8,0.6-1.1,0.6c-0.3,0-0.6-0.1-0.6-0.7c0.1-0.7,0.4-1.5,0.7-2.1c0.4-0.4,0.7-0.7,1-0.7
			c0.3,0,0.3,0.3,0.3,0.6c0,0.1,0.1,0.3,0.3,0.3c0,0,0.4-0.1,0.4-0.6C169.8,867.4,169.5,867.1,169.1,867.1z"/>
		<path display="inline" d="M172.2,867.1c-0.1,0-0.4,0-0.7,0.1v0.6c0.3-0.3,0.4-0.4,0.7-0.4c0.3,0,0.4,0.4,0.4,0.7
			c0,0.6-0.6,1.8-1,2.5l-0.1,0.1v0.4c0.3,0,0.4-0.1,0.7-0.4c0.7-0.8,1.1-1.8,1.1-2.3C173.4,867.7,173.1,867.1,172.2,867.1z
			 M171.6,867.3c-0.1,0.1-0.4,0.3-0.7,0.6c-0.7,0.6-1,1.5-1.1,2.2c0,0.8,0.4,1.4,1.1,1.4c0.1,0,0.4,0,0.7-0.3v-0.4
			c-0.3,0.3-0.4,0.3-0.7,0.3s-0.4-0.3-0.4-0.6c0-0.6,0.4-1.8,1.1-2.5c0-0.1,0-0.1,0-0.1V867.3L171.6,867.3z"/>
		<path display="inline" d="M177.6,867.1c-0.7,0-1.7,1.1-2.3,2.2h-0.1l0.7-1.8c0.1-0.3,0-0.4-0.1-0.4c-0.8,0-1.4,0.4-1.7,1l0.1,0.1
			c0.3-0.3,0.6-0.6,1-0.6c0.1,0,0.1,0.1,0,0.3c0,0.1-1.1,3-1.1,3.2c-0.1,0.1,0.1,0.3,0.3,0.3s0.1-0.1,0.1-0.1
			c0.7-1.1,1.1-1.9,1.5-2.6c0.6-0.7,1.2-1.1,1.5-1.1c0.3,0-0.1,0.8-0.1,1l-1,2.6c-0.1,0.1,0.1,0.3,0.3,0.3c0.1,0,0.1-0.1,0.1-0.1
			c0.7-1.1,1.1-1.9,1.7-2.6c0.6-0.7,1-1.1,1.2-1.1c0.1,0,0.1,0,0.1,0.1c0,0.3-0.1,0.6-0.1,0.8c-0.3,0.4-0.7,1.4-0.8,1.9
			c-0.3,0.6-0.3,0.6-0.3,0.7c0,0.1,0.1,0.3,0.3,0.3c0.6,0,1.4-0.6,1.8-1.1c0-0.1-0.1-0.3-0.3-0.3c-0.3,0.4-0.7,0.7-1,0.7
			c0,0,0,0,0-0.1c0.1-0.1,0.8-1.7,1-2.2c0.1-0.3,0.1-0.6,0.1-0.7c0-0.4-0.1-0.6-0.6-0.6c-0.7,0-1.4,0.7-2.3,2.2l0,0l0.3-1
			C178.2,867.9,178.5,867.1,177.6,867.1z"/>
		<path display="inline" d="M183.5,866.7c0-0.1-0.1-0.3-0.3-0.3v1.1l0,0c0.1,0,0.1,0,0.3,0c0.4,0,0.8,0.3,0.8,0.8
			c0,0.4-0.1,1.1-0.6,1.8c-0.3,0.3-0.4,0.4-0.6,0.6v0.4c0.1-0.1,0.4-0.1,0.6-0.3c0.7-0.7,1.4-1.5,1.4-2.5c0-1-1-1.1-1.4-1.1
			c-0.3,0-0.4,0-0.4,0L183.5,866.7z M183.3,866.4c-0.1,0-0.1,0-0.3,0.1l-0.3,0.7c-0.6,0.1-1,0.4-1.2,0.6c0,0.1,0,0.3,0.1,0.3
			c0.4-0.3,0.6-0.3,1-0.4l-1.9,5.2c-0.1,0.4-0.1,0.7-0.7,0.7l-0.3,0.1v0.1c0.7,0,1.5,0,2.2,0c0.1,0,0.1-0.1,0.1-0.3h-0.4
			c-0.4-0.1-0.4-0.1-0.1-1l0.4-1.1c0-0.1,0.1-0.3,0.1-0.3c0.1,0.1,0.3,0.1,0.3,0.1c0.1,0,0.6,0,1-0.3v-0.4c-0.3,0.3-0.6,0.3-0.7,0.3
			c-0.1,0-0.3-0.1-0.3-0.1c-0.1-0.1-0.1-0.3,0-0.3l1-3L183.3,866.4L183.3,866.4z"/>
		<path display="inline" d="M188.6,867.5c0-0.1-0.1-0.3-0.1-0.3c-0.1,0-0.1,0-0.3,0c-0.3,0-0.6,0-1,0.3c0,0,0,0-0.1,0.1v0.4l0,0
			c0.4-0.4,0.6-0.4,0.8-0.4c0.1,0,0.4,0.1,0.4,0.3c-0.1,0.6-0.6,1.4-1.2,2.1v0.4c0.3-0.3,0.4-0.4,0.6-0.7h0.1l-0.4,1
			c0,0.3-0.1,0.3-0.1,0.4c0,0,0.1,0.3,0.4,0.3c0.6,0,1.2-0.6,1.7-1.1c0-0.1-0.1-0.1-0.1-0.1c-0.6,0.4-0.8,0.6-1.1,0.6
			c0,0-0.1,0,0-0.1c0.3-1,1.2-3.2,1.4-3.6c-0.1-0.1-0.4-0.1-0.6-0.1L188.6,867.5z M187.1,867.7c-0.4,0.1-0.7,0.6-1.1,1.1
			c-0.7,1-1,1.8-1,2.1c0,0.3,0.1,0.6,0.4,0.6c0.4,0,1.1-0.4,1.7-1V870c0,0.1,0,0.1-0.1,0.1c-0.6,0.6-0.8,0.7-1,0.7
			c0,0-0.1-0.1-0.1-0.3c0-0.7,0.7-1.9,1.2-2.5L187.1,867.7L187.1,867.7z"/>
		<path display="inline" d="M191.8,867.5c0.1-0.3,0-0.4-0.3-0.4c-0.6,0-1.1,0.4-1.5,1c0,0,0,0.1,0.1,0.1c0.3-0.3,0.7-0.6,1-0.6
			c0,0,0,0.1,0,0.3c0,0.1-1.1,3-1.2,3.2c0,0.1,0.3,0.3,0.4,0.3l0.1-0.1c0.6-1.1,1-1.9,1.5-2.6c0.6-0.7,1.1-1.1,1.4-1.1
			c0.1,0,0.1,0,0.1,0.1c0,0.3-0.1,0.6-0.1,0.8c-0.3,0.4-0.7,1.4-0.8,1.9c-0.3,0.6-0.3,0.6-0.3,0.7c0,0.1,0.1,0.3,0.3,0.3
			c0.6,0,1.4-0.6,1.7-1.1c0-0.1,0-0.3-0.1-0.3c-0.3,0.4-0.7,0.7-1,0.7c0,0,0,0,0-0.1s0.8-1.7,1-2.2c0.1-0.3,0.1-0.6,0.1-0.7
			c0-0.4-0.1-0.6-0.6-0.6c-0.7,0-1.8,1.1-2.5,2.2l0,0L191.8,867.5z"/>
		<path display="inline" d="M196,867.1c-0.4,0-1,0.6-1.1,1.2c0,0.1,0,0.1,0.1,0.1c0.3-0.4,0.4-0.7,0.6-0.7c0.3,0,0.4,0.4,0.4,1.5
			c0,0.8,0,1.8-0.1,2.2c-0.3,0.7-0.7,1.4-1,1.5c-0.1,0.3-0.4,0.3-0.6,0.3c-0.1,0-0.3-0.1-0.3-0.1c0-0.1-0.1-0.1-0.3-0.1
			c-0.1,0-0.4,0.1-0.4,0.4s0.3,0.4,0.6,0.4c0.4,0,0.8-0.1,1.7-1c0.7-1,1.1-1.7,1.7-2.5c0.8-1.5,1.1-2.8,1.1-3c0-0.1,0-0.1-0.1-0.1
			c0-0.1-0.1-0.1-0.3-0.1c0,0-0.1,0-0.1,0.3c0,0.3-0.3,1.4-0.4,1.9c-0.3,0.6-0.6,1.2-0.8,1.7l0,0c0.1-0.8,0.1-1.5,0.1-2.2
			C196.5,868.1,196.5,867.1,196,867.1z"/>
	</g>
	<g id="yWorks_3_">
		<path d="M35.5,826.5c-3.7,0-6.9,4.6-8.6,9.5c0.1,0.7,0.7,1.2,1.5,1c1.5-3,2.8-5.7,4.3-5.7c1.4,0,2.6,2.9,2.8,11.2
			c0.1,6.3-0.4,13.2-1.4,17.1c-1.5,4.8-4.7,9.5-6.6,11.2c-1.8,1.5-3.2,2.1-4.1,2.1c-1.1,0-1.8-1-2.1-1.4c-0.6-0.7-1.2-1.2-1.9-1.2
			c-1.7,0-3,1.4-3,3.3c0,1.8,1.5,3.4,3.9,3.4s6.1-1.2,11.6-7.6c6.1-6.8,8.7-11.7,12.4-17.9c6.6-11.2,8.7-20.8,8.6-22.7
			c0-0.8-0.1-1.1-0.7-1.4c-0.6-0.4-1.5-0.7-2.1-0.7c-0.4,0-1.7,0.1-1.8,2.2c0,1.9-1.1,9.5-2.8,13.8c-1.7,4.6-3.7,9.2-6.2,12.8H39
			c1-6.1,1.1-11.6,1.1-16.4C39.9,833.9,39.2,826.5,35.5,826.5z"/>
		<path d="M52.3,809.4c2.5,0.3,3.2,2.3,4.3,5.4c4,10.3,7.6,20.7,11.4,31c0.8,2.2,3.2,8.8,4.1,12c0.3,0.1,0.6,0.3,0.8,0.3
			c0.4,0,0.6-0.1,0.8-0.3c1.7-6.2,5.2-15.7,7.4-21.1c1.8,5.1,5.2,14.5,7.2,21.1c0.3,0.1,0.6,0.3,0.8,0.3s0.6-0.1,0.7-0.3
			c2.5-8,5-15.3,7.4-22.9l4.4-12.6c3.6-10.3,4.1-12.7,7-13l1.2-0.1c0.4-0.7,0.3-1.7-0.1-1.8c-1.7,0.1-3.3,0.1-5.7,0.1
			c-1.8,0-3.4,0-5.7-0.1c-0.6,0.3-0.6,1.1,0,1.8l1.7,0.1c1.2,0,1.9,0.7,1.9,1.7s-1,4.1-1.8,6.8c-0.4,1.4-3.6,11.3-4.7,14.9
			c-1.8,5.2-3.6,10.5-5.4,15.7c-1.9-5.7-4.1-11.3-6.1-17c-0.3-1-0.4-1.5-0.4-1.8c0-0.3,0.1-1.1,0.6-1.8c0.8-2.6,3.3-9.1,4.6-11.8
			c1.4-3,2.5-6.5,5-6.6l1.7-0.1c0.4-0.7,0.3-1.7-0.1-1.8c-1.2,0.1-3.7,0.1-5.7,0.1c-2.2,0-4,0-5.7-0.1c-0.4,0.1-0.6,1-0.1,1.8
			l1.8,0.1c1.9,0.1,2.2,1,0.1,7.3c-1.4,4-2.3,6.8-3.6,9.8c-1.7-4.7-3.3-9.4-4.6-13c-1.2-3.4-1.1-4,1.2-4.1l1.5-0.1
			c0.4-0.7,0.4-1.7-0.1-1.8c-1.2,0.1-3.4,0.1-6.5,0.1c-2.3,0-4.7,0-6.3-0.1c-0.6,0.3-0.6,1.1-0.1,1.8l1.4,0.1
			c2.1,0.1,2.9,1.8,3.9,4.1c2.2,5.9,4.4,11.8,6.5,17.8c0.4,1,0.6,1.7,0.6,1.9c0,0.4-0.6,1.7-1,3c-1.7,4.3-3.2,8.4-4.6,12.1
			c-3.4-9.1-7-18.5-10.3-27.8c-1.9-5.2-3.2-9.1-3.2-9.9c0-0.7,0.8-1.1,2.1-1.2l1.4-0.1c0.3-0.6,0.4-1.7-0.1-1.8
			c-2.1,0.1-5.2,0.1-6.9,0.1c-1.8,0-4.4,0-6.1-0.1c-0.6,0.3-0.6,1.2-0.1,1.8L52.3,809.4z"/>
		<path d="M116.2,826.5c-0.1,0-0.1,0-0.3,0v2.2c5.4,0.4,7.3,8.1,7.3,14.3c0,5.8-1.7,12.6-6.9,12.6c-0.1,0-0.3,0-0.4,0v2.3
			c7.3-0.1,12.4-6.8,12.4-16.1C128.3,832.7,122.9,826.5,116.2,826.5z M115.9,826.5c-6.9,0.1-12.4,6.8-12.4,16
			c0,9.4,5.4,15.4,12.3,15.4c0,0,0,0,0.1,0v-2.3c-5-0.3-7.3-7.4-7.3-14.1c0-8.1,2.9-12.8,6.9-12.8c0.1,0,0.3,0,0.4,0V826.5
			L115.9,826.5z"/>
		<path d="M137,848.4c0,5.4,0,6.1-2.2,6.5l-1.1,0.3c-0.4,0.4-0.4,1.7,0,1.9c1.7-0.1,3.4-0.3,5.5-0.3c2.1,0,3.9,0.1,6.6,0.3
			c0.4-0.3,0.6-1.5,0.1-1.9l-2.1-0.3c-2.3-0.1-2.5-1.1-2.5-6.5v-10.1c0-2.5,0.3-4.7,0.8-5.8c0.4-0.7,1.2-1.4,2.1-1.4
			c1,0,1.8,0.4,2.8,1.1c0.4,0.3,0.7,0.6,1.2,0.6c1,0,2.6-1,2.6-3.4c0-1.8-1.2-2.9-2.8-2.9c-2.2,0-4.4,2.2-6.5,4.4
			c-0.1-0.1-0.3-0.3-0.3-0.7v-4.3c0-0.3-0.1-0.4-0.4-0.6c-1.5,1.1-4.7,3-6.1,3.7c-0.3,0.1-0.3,1,0,1.2l0.6,0.4
			c1.5,1.4,1.5,1.8,1.5,4.7L137,848.4L137,848.4z"/>
		<path d="M156.7,848.4c0,5.4-0.1,6.2-2.3,6.5l-1.2,0.3c-0.6,0.4-0.4,1.7,0,1.9c1.8-0.1,3.6-0.3,5.8-0.3c2.1,0,3.9,0.1,5.8,0.3
			c0.4-0.3,0.6-1.5,0.1-1.9l-1.5-0.3c-2.1-0.3-2.2-1.1-2.2-6.5v-4c0-2.3,0-2.6,1.1-2.6c0.7,0,1.4,0.4,1.9,1.1l6.3,9.2
			c0.7,1.1,1,1.7,1,2.1s-0.6,0.6-1.5,0.7l-1,0.3c-0.4,0.3-0.4,1.7,0,1.9c1.8-0.1,3.9-0.3,6.2-0.3c1.9,0,4,0.1,5.7,0.3
			c0.6-0.3,0.6-1.5,0.1-1.9l-0.8-0.1c-1.1-0.3-2.2-0.7-3-1.7c-1.2-1.4-3.3-4.3-5.7-7.6c-2.1-2.8-2.9-4.3-4-5.9
			c-0.3-0.6-0.3-1,0.4-1.8c1.1-1.2,3.2-4,5.5-6.2c1.5-1.7,2.5-2.3,3.7-2.6l1.9-0.6c0.3-0.3,0.3-1.7-0.1-1.8
			c-3.3,0.4-6.9,0.6-9.5,0.6h-1.4c-0.6,0.3-0.6,1.7,0,1.9l1.4,0.3c1.1,0.1,1.4,0.3,1.4,0.7s-0.4,1.2-2.1,3.4l-2.5,3.2
			c-1.7,2.2-2.8,2.9-4,2.9c-1.1,0-1.1-0.1-1.1-1.1v-25.4c0-3.3,0.1-7,0.1-9.2c-0.1-0.3-0.3-0.4-0.6-0.4c-2.2,1.4-5,2.5-6.5,3
			c-0.3,0.3-0.3,1.4,0,1.5l0.6,0.4c1.8,1.4,1.9,1.8,1.9,6.2V848.4L156.7,848.4z"/>
		<path d="M192.1,826.5c-4.6,0-8.1,3-8.1,8.4c0,4.1,2.5,6.8,5.9,9.2c2.2,1.5,4.6,3.4,4.6,6.8c0,3.3-1.8,4.8-4,4.8
			c-3.4,0-5.4-3.6-6.3-7.7c-0.3-0.4-1.1-0.3-1.4,0.1c-0.1,2.5,0.3,6.1,0.7,7.4c1.5,1.5,3.6,2.3,6.5,2.3c4.4,0,8.6-2.9,8.6-8.6
			c0-5.2-2.9-7.8-6.1-10.1c-2.1-1.5-4.6-3.2-4.6-6.2c0-2.6,1.4-4.6,3.7-4.6c2.5,0,4.3,2.2,5.2,5.5c0.3,0.4,1.2,0.3,1.5-0.3
			c0-1.9-0.4-4.4-1-6.1C196.8,827.1,194.6,826.5,192.1,826.5z"/>
	</g>
</g>
</svg>
